<?xml version="1.0" encoding="utf-8"?>
<!-- Generator: Adobe Illustrator 16.0.3, SVG Export Plug-In . SVG Version: 6.00 Build 0)  -->
<!DOCTYPE svg PUBLIC "-//W3C//DTD SVG 1.1//EN" "http://www.w3.org/Graphics/SVG/1.1/DTD/svg11.dtd">
<svg version="1.1" id="Layer_1" xmlns="http://www.w3.org/2000/svg" xmlns:xlink="http://www.w3.org/1999/xlink" x="0px" y="0px"
	 width="288px" height="288px" viewBox="0 0 288 288" enable-background="new 0 0 288 288" xml:space="preserve">
<g>
	<path fill="#FFFFFF" d="M269.041,96.077L146.318,47.428c-1.281-0.506-3.354-0.506-4.632,0L18.96,96.077
		c-1.28,0.506-1.28,1.332,0,1.84l49.021,19.432c-5.103,2.303-5.567,3.306-5.909,4.061c-2.505,5.514-2.225,59.573-2.142,70.355
		l4.38-0.035c-0.23-30.284,0.289-64.225,1.694-68.357c0.852-0.814,60.694-28.137,64.858-29.769l-52.645,27.803l63.468,25.157
		c1.278,0.511,3.353,0.511,4.632,0l122.723-48.647C270.32,97.409,270.32,96.585,269.041,96.077z"/>
	<path fill="#FFFFFF" d="M144.002,154.978c-1.321,0-3.308-0.164-5.279-0.95l-61.517-24.383v50.7
		c0,8.266,29.905,14.965,66.796,14.965c36.89,0,66.792-6.699,66.792-14.965v-50.7l-61.52,24.387
		C147.309,154.813,145.321,154.978,144.002,154.978z"/>
	<path fill="#FFFFFF" d="M67.351,206.903c0-2.188,0-7.301,0-9.675c0-2.371-4.925-2.493-4.925-2.493s-4.929,0.122-4.929,2.493
		c0,2.374,0,7.487,0,9.675s4.929,2.188,4.929,2.188S67.351,209.091,67.351,206.903z"/>
	<path fill="#FFFFFF" d="M67.351,210.157c-4.623,2.68-9.244,0-9.244,0c-4.867,2.312-5.232,10.95-5.232,15.396
		c0,4.45-2.313,9.301-2.313,9.301l3.65,4.624c0,0,2.952-5.309,2.03-9.975c-0.922-4.667,0.525-7.667,0.525-7.667s0,1.829,0.73,5.719
		c0.731,3.896-1.58,11.805-1.216,12.383c0.364,0.583,5.597,2.341,6.935-0.822c1.337-3.166,0.975-15.818,0.975-15.818
		s0,0,1.094,4.139c1.094,4.133-0.577,12.286-0.577,12.286s2.523,0.487,4.104,0c1.583-0.486,2.311-1.34,1.339-3.286
		c-0.974-1.942,0.662-9.119,1.094-14.718C71.854,213.808,67.351,210.157,67.351,210.157z"/>
</g>
</svg>
