<?xml version="1.0" encoding="utf-8"?>
<!-- Generator: Adobe Illustrator 16.0.3, SVG Export Plug-In . SVG Version: 6.00 Build 0)  -->
<!DOCTYPE svg PUBLIC "-//W3C//DTD SVG 1.1//EN" "http://www.w3.org/Graphics/SVG/1.1/DTD/svg11.dtd">
<svg version="1.1" id="Layer_1" xmlns="http://www.w3.org/2000/svg" xmlns:xlink="http://www.w3.org/1999/xlink" x="0px" y="0px"
	 width="288px" height="288px" viewBox="0 0 288 288" enable-background="new 0 0 288 288" xml:space="preserve">
<path fill="#FFFFFF" d="M23.524,157.391l26.75,26.769c7.365,7.364,19.425,19.427,26.791,26.795l26.771,26.758
	c7.348,7.344,19.367,7.359,26.737,0.048c0.018-0.016,0.036-0.032,0.055-0.048l26.75-26.758c7.365-7.368,19.426-19.431,26.792-26.795
	l26.771-26.769c2.469-2.472,5.484-5.488,8.657-8.658c5.392-5.394,11.233-11.237,15.891-15.894c0.771-0.774,1.542-1.546,2.237-2.24
	l26.756-26.755c7.359-7.365,7.359-19.42,0-26.792l-26.756-26.761c-7.36-7.365-19.425-7.365-26.785,0l-26.771,26.761
	c-0.554,0.559-1.178,1.18-1.778,1.783c-4.775,4.775-10.908,10.905-16.53,16.525c-1.228,1.232-2.417,2.416-3.571,3.57
	c-1.762,1.762-3.446,3.446-4.912,4.914l-26.75,26.755c-0.011,0.011-0.023,0.021-0.037,0.035c-7.367,7.324-19.399,7.321-26.754-0.035
	l-26.771-26.755c-7.365-7.365-19.426-7.365-26.791,0l-9.469,9.47l-17.281,17.285C16.159,137.966,16.159,150.024,23.524,157.391z"/>
</svg>
