<?xml version="1.0" encoding="utf-8"?>
<!-- Generator: Adobe Illustrator 16.0.3, SVG Export Plug-In . SVG Version: 6.00 Build 0)  -->
<!DOCTYPE svg PUBLIC "-//W3C//DTD SVG 1.1//EN" "http://www.w3.org/Graphics/SVG/1.1/DTD/svg11.dtd">
<svg version="1.1" id="Layer_1" xmlns="http://www.w3.org/2000/svg" xmlns:xlink="http://www.w3.org/1999/xlink" x="0px" y="0px"
	 width="288px" height="288px" viewBox="0 0 288 288" enable-background="new 0 0 288 288" xml:space="preserve">
<g>
	<path fill="#FFFFFF" d="M199.11,42.077C190.037,31.088,172.399,18,139.948,18c-21.922,0-41.156,8.712-53.702,24.052
		c-1.213,1.49-2.387,3.013-3.472,4.622c-11.313,16.777-8.199,39.687-8.199,39.687c1.313,9.606,9.74,14.497,18.731,10.866
		l5.881-2.376c1.24-0.503,2.428-1.107,3.562-1.788c7.076-4.244,11.799-11.615,10.899-17.744c0,0,0.029-0.049,2.116-3.139
		c0.423-0.626,0.899-1.329,1.511-2.235c4.43-6.562,12.695-10.315,22.673-10.315c21.701,0,32.261,8.333,32.261,25.486
		c0,9.575-5.77,19.654-21.308,37.188c-7.913,8.941-16.069,18.861-22.018,30.765c-6.065,12.119-9.166,25.141-9.47,39.821
		c-0.063,2.718-0.063,2.718-0.063,2.718c-0.047,2.982,7.863,5.407,17.557,5.407h6.347c3.3,0,6.383-0.257,9.04-0.688
		c5.149-0.844,8.644-2.379,8.666-4.112c0,0,0,0,0.052-2.449c0.38-17.638,6.805-27.785,21.049-43.873
		c15.362-17.359,31.756-38.095,31.756-64.776C213.817,75.7,211.907,57.577,199.11,42.077z"/>
	<path fill="#FFFFFF" d="M160.864,247.503c-0.042-7.664-8.015-13.933-17.715-13.933h-6.342c-8.005,0-14.771,4.423-16.875,10.438
		c-0.445,1.275-0.695,2.617-0.687,4.009c0,0,0,0,0.054,6.275c0.061,5.695,0.061,5.695,0.061,5.695
		c0.024,5.515,7.981,10.012,17.678,10.012h6.349c3.184,0,6.17-0.513,8.756-1.388c5.274-1.782,8.843-5.111,8.829-8.919
		c0,0,0,0-0.056-5.781C160.864,247.503,160.864,247.503,160.864,247.503z"/>
</g>
</svg>
