<?xml version="1.0" encoding="utf-8"?>
<!-- Generator: Adobe Illustrator 16.0.3, SVG Export Plug-In . SVG Version: 6.00 Build 0)  -->
<!DOCTYPE svg PUBLIC "-//W3C//DTD SVG 1.1//EN" "http://www.w3.org/Graphics/SVG/1.1/DTD/svg11.dtd">
<svg version="1.1" id="Layer_1" xmlns="http://www.w3.org/2000/svg" xmlns:xlink="http://www.w3.org/1999/xlink" x="0px" y="0px"
	 width="288px" height="288px" viewBox="0 0 288 288" enable-background="new 0 0 288 288" xml:space="preserve">
<g>
	<path fill="#FFFFFF" d="M270,238.134l-103.092-7.747c-3.768,2.035-7.445,3.579-11.043,4.636c-3.61,1.056-7.092,1.585-10.456,1.585
		c-3.443,0-7.141-0.529-11.102-1.585c-3.952-1.057-8.157-2.601-12.628-4.636L18,238.134V74.984l21.851-1.291l8.529-16.55
		c9.234-2.426,17.978-4.245,26.224-5.458c8.255-1.213,15.972-1.819,23.172-1.819c12.52,0,22.31,1.624,29.392,4.871
		c7.071,3.247,12.647,8.706,16.716,16.373c3.678-7.512,9.234-12.93,16.677-16.255c7.434-3.326,17.654-4.989,30.654-4.989
		c6.65,0,13.957,0.606,21.898,1.819c7.954,1.213,16.581,3.032,25.902,5.458l7.98,15.259L270,73.693V238.134z M264.249,231.912
		V78.857l-14.554-0.821l5.752,9.507v134.745l-94.066-5.868c-4.538,3.833-10.339,5.751-17.381,5.751
		c-6.964,0-12.686-1.918-17.146-5.751l-94.416,5.868V87.543l4.254-8.334l-12.94,0.705v151.998l99.816-7.395
		c3.912,2.112,7.669,3.697,11.268,4.754c3.609,1.056,7.092,1.585,10.456,1.585c3.131,0,6.348-0.529,9.634-1.585
		c3.286-1.057,6.692-2.642,10.222-4.754L264.249,231.912z M38.188,88.717v122.421l11.619-22.419V67.59L38.188,88.717z
		 M42.697,216.42l85.8-6.809c2.505,3.208,6.69,5.478,12.569,6.809c-1.097-9.86-4.91-16.922-11.454-21.187
		c-6.533-4.265-16.804-6.396-30.811-6.396c-6.505,0-13.488,0.449-20.961,1.349c-7.473,0.9-15.435,2.25-23.895,4.05L42.697,216.42z
		 M55.56,187.897c9.087-1.644,17.137-2.856,24.149-3.64c7.014-0.781,12.989-1.172,17.93-1.172c20.139,0,34.635,4.851,43.486,14.554
		V88.365c0-10.955-3.414-19.151-10.231-24.59c-6.808-5.438-17.078-8.158-30.791-8.158c-7.053,0-14.28,0.489-21.685,1.468
		S63.395,59.53,55.56,61.486V187.897z M232.323,61.252c-8.607-1.878-16.549-3.287-23.826-4.226
		c-7.278-0.939-13.89-1.409-19.836-1.409c-14.478,0-25.431,2.974-32.863,8.921c-5.948,4.695-8.922,12.715-8.922,24.062v109.509
		c5.398-5.712,11.15-9.644,17.254-11.795c6.104-2.152,14.515-3.228,25.234-3.228c7.122,0,14.261,0.41,21.422,1.231
		c7.159,0.822,14.34,2.094,21.537,3.814V61.252z M246.174,216.42l-11.267-21.832c-9.079-1.957-17.509-3.404-25.295-4.343
		c-7.786-0.939-14.886-1.408-21.303-1.408c-27.624,0-41.434,9.194-41.434,27.583c5.771-0.939,10.174-3.248,13.215-6.926
		L246.174,216.42z M238.074,68.06v120.659l11.621,21.832V90.008L238.074,68.06z"/>
</g>
</svg>
