<?xml version="1.0" encoding="utf-8"?>
<!-- Generator: Adobe Illustrator 16.0.3, SVG Export Plug-In . SVG Version: 6.00 Build 0)  -->
<!DOCTYPE svg PUBLIC "-//W3C//DTD SVG 1.1//EN" "http://www.w3.org/Graphics/SVG/1.1/DTD/svg11.dtd">
<svg version="1.1" id="Layer_1" xmlns="http://www.w3.org/2000/svg" xmlns:xlink="http://www.w3.org/1999/xlink" x="0px" y="0px"
	 width="288px" height="288px" viewBox="0 0 288 288" enable-background="new 0 0 288 288" xml:space="preserve">
<path fill="#FFFFFF" d="M268.193,100.541l-4.443-4.571c-1.32-1.357-3.084-1.969-4.764-1.828c-2.772-0.926-7.259-2.612-12.388-5.258
	c-8.554-4.413-8.952-20.564-8.952-20.564l-0.469-0.082c-0.264-0.979-0.761-1.895-1.495-2.65l-25.371-26.096l-0.238-1.024
	l-2.405-1.67c-0.594-0.55-1.274-0.953-2.001-1.209c-6.434-3.561-28.85-13.693-51.595,2.909c0.943,0.562-8.635,7.966,2.65,6.167
	c0,0,20.313-6.086,31.448,3.843l-5.362,5.549c-2.394,2.477-2.57,6.36-0.478,8.828l-7.611,7.875
	c-3.02,3.125-3.071,8.171-0.114,11.214l0.896,0.921l-45.765,47.354L67.94,66.254L65.11,53.651L42.707,41.09l-8.908,9.154
	l12.454,26.438l12.312-0.792l61.829,64.028l-3.468,3.589l-1.344-1.384c-2.958-3.042-7.849-2.975-10.87,0.151l-84.413,87.343
	c-3.02,3.126-3.071,8.172-0.114,11.214l15.236,15.672c2.958,3.042,7.849,2.974,10.869-0.151l80.098-82.879l79.204,82.021
	c2.451,2.538,6.532,2.481,9.068-0.126l27.048-27.799c2.537-2.607,2.607-6.816,0.156-9.354l-83.74-86.718
	c-0.324-0.336-0.679-0.623-1.053-0.868l32.323-33.445l0.447,0.46c2.958,3.042,7.85,2.975,10.869-0.151l4.924-5.094
	c1.637,1.01,3.676,1.903,6.186,2.644c15.685,4.622,22.656,13.601,25.715,19.953c-0.877,2.169-0.411,4.844,1.372,6.679l4.444,4.571
	c2.316,2.383,6.004,2.478,8.194,0.21l16.876-17.462C270.612,106.728,270.51,102.923,268.193,100.541z M211.392,242.251
	c-2.114,2.174-5.515,2.221-7.557,0.105l-66.1-68.45c-2.042-2.115-1.984-5.623,0.13-7.796c2.114-2.173,5.515-2.22,7.558-0.104
	l66.099,68.45C213.563,236.571,213.506,240.079,211.392,242.251z M162.347,147.847l66.1,68.449c2.042,2.114,1.983,5.623-0.131,7.795
	c-2.113,2.173-5.514,2.22-7.557,0.104l-66.099-68.449c-2.042-2.114-1.984-5.622,0.13-7.795S160.305,145.731,162.347,147.847z"/>
</svg>
